<svg width="20" height="20" viewBox="0 0 20 20" fill="none" xmlns="http://www.w3.org/2000/svg">
<g clip-path="url(#clip0_61_473)">
<path d="M20.0001 11.3291L19.922 11.4592C19.8757 11.5418 19.8099 11.6119 19.7303 11.6634C19.6506 11.7148 19.5597 11.746 19.4653 11.7543C19.3708 11.7626 19.2758 11.7477 19.1885 11.7109C19.1011 11.6741 19.0241 11.6165 18.9641 11.5432C18.9301 11.5031 18.9 11.4611 18.87 11.4191C18.6612 11.1327 18.3877 10.8997 18.0718 10.7391C17.7559 10.5784 17.4065 10.4947 17.0521 10.4947C16.6976 10.4947 16.3482 10.5784 16.0323 10.7391C15.7164 10.8997 15.4429 11.1327 15.2341 11.4191C15.1734 11.5099 15.0913 11.5843 14.995 11.6358C14.8987 11.6872 14.7912 11.7141 14.6821 11.7141C14.5729 11.7141 14.4654 11.6872 14.3691 11.6358C14.2728 11.5843 14.1907 11.5099 14.1301 11.4191C13.9392 11.1503 13.6899 10.9283 13.401 10.7695C13.112 10.6108 12.7909 10.5196 12.4617 10.5026C12.1324 10.4857 11.8037 10.5435 11.5 10.6718C11.1963 10.8 10.9255 10.9953 10.7081 11.2431C10.6346 11.33 10.593 11.4394 10.5901 11.5532C10.5901 13.5834 10.5901 15.6156 10.5901 17.6458C10.5909 18.2559 10.3538 18.8423 9.9292 19.2805C9.50459 19.7186 8.92591 19.9739 8.31609 19.9921C7.70627 20.0103 7.11337 19.7901 6.66336 19.3781C6.21334 18.9661 5.94167 18.3949 5.90606 17.7858C5.90606 17.5458 5.90606 17.3037 5.90606 17.0637C5.90606 16.9088 5.96758 16.7603 6.0771 16.6507C6.18662 16.5412 6.33518 16.4797 6.49006 16.4797C6.64495 16.4797 6.79348 16.5412 6.903 16.6507C7.01253 16.7603 7.07405 16.9088 7.07405 17.0637C7.07405 17.2637 7.07405 17.4637 7.07405 17.6638C7.07616 17.9734 7.20051 18.2697 7.42002 18.4881C7.63953 18.7065 7.93641 18.8294 8.24605 18.8299C8.39965 18.8307 8.5519 18.801 8.69397 18.7426C8.83604 18.6842 8.96511 18.5982 9.07373 18.4895C9.18235 18.3809 9.26834 18.2518 9.32676 18.1097C9.38518 17.9676 9.41486 17.8154 9.41406 17.6618C9.41406 15.6122 9.41406 13.5614 9.41406 11.5092C9.40351 11.4023 9.35696 11.3021 9.28206 11.2251C9.06415 10.9865 8.79657 10.7986 8.49817 10.6746C8.19977 10.5506 7.87779 10.4935 7.55496 10.5074C7.23212 10.5213 6.91626 10.6059 6.62964 10.7551C6.34302 10.9044 6.09261 11.1146 5.89605 11.3711C5.87005 11.4091 5.84407 11.4472 5.81607 11.4832C5.76134 11.5657 5.68702 11.6334 5.59978 11.6802C5.51254 11.727 5.41508 11.7515 5.31607 11.7515C5.21705 11.7515 5.11957 11.727 5.03233 11.6802C4.94508 11.6334 4.8708 11.5657 4.81607 11.4832C4.60626 11.1815 4.32662 10.9352 4.001 10.765C3.67539 10.5948 3.31343 10.506 2.94605 10.506C2.57866 10.506 2.21673 10.5948 1.89111 10.765C1.5655 10.9352 1.28586 11.1815 1.07605 11.4832C1.00819 11.5964 0.902767 11.6822 0.77815 11.7257C0.653534 11.7692 0.517631 11.7676 0.394068 11.7212C0.270049 11.6801 0.163319 11.5987 0.0908457 11.49C0.0183721 11.3813 -0.0156877 11.2514 -0.00593161 11.1211C0.0178262 8.92072 0.763951 6.78913 2.11765 5.05437C3.47135 3.31961 5.3576 2.07783 7.48606 1.52015C8.10406 1.35814 8.74606 1.28014 9.40606 1.15813C9.43406 0.758089 9.27006 0.244036 9.83606 0.00601196H10.1501C10.7161 0.244036 10.5501 0.760087 10.5841 1.20613C10.6138 1.2124 10.6438 1.21706 10.674 1.22012C12.1919 1.314 13.6657 1.76715 14.9741 2.54225C17.6281 4.12641 19.2621 6.43865 19.8421 9.48096C19.9081 9.83699 19.9441 10.199 19.9941 10.5591L20.0001 11.3291Z" fill="black"/>
</g>
<defs>
<clipPath id="clip0_61_473">
<rect width="20" height="20" fill="white"/>
</clipPath>
</defs>
</svg>
